<svg xmlns="http://www.w3.org/2000/svg" viewBox="0 0 1400 980" role="img" aria-labelledby="title desc">
  <title id="title">따뜻한 관계의 작은 밤</title>
  <desc id="desc">두 사람이 밤하늘 아래 나란히 앉아 편지, 꽃, 작은 별빛을 사이에 두고 웃는 귀여운 손그림 일러스트</desc>
  <defs>
    <filter id="paper" x="-8%" y="-8%" width="116%" height="116%">
      <feTurbulence type="fractalNoise" baseFrequency="0.012" numOctaves="4" seed="23" result="noise" />
      <feColorMatrix in="noise" type="saturate" values="0" result="grain" />
      <feBlend in="SourceGraphic" in2="grain" mode="multiply" opacity="0.22" />
    </filter>
    <filter id="rough" x="-6%" y="-6%" width="112%" height="112%">
      <feTurbulence type="fractalNoise" baseFrequency="0.02" numOctaves="2" seed="9" result="turb" />
      <feDisplacementMap in="SourceGraphic" in2="turb" scale="2.6" xChannelSelector="R" yChannelSelector="G" />
    </filter>
    <filter id="shadow" x="-20%" y="-20%" width="140%" height="140%">
      <feDropShadow dx="0" dy="16" stdDeviation="18" flood-color="#5f412b" flood-opacity="0.15" />
    </filter>
    <linearGradient id="sky" x1="0" x2="0" y1="0" y2="1">
      <stop offset="0" stop-color="#fff3c8" />
      <stop offset="0.55" stop-color="#fff7df" />
      <stop offset="1" stop-color="#f6efd6" />
    </linearGradient>
    <style>
      .line { fill: none; stroke: #3d3028; stroke-width: 5.5; stroke-linecap: round; stroke-linejoin: round; filter: url(#rough); }
      .thin { fill: none; stroke: #56443a; stroke-width: 3.4; stroke-linecap: round; stroke-linejoin: round; filter: url(#rough); }
      .soft { filter: url(#rough); }
      .glow { opacity: .78; }
    </style>
  </defs>

  <rect width="1400" height="980" rx="48" fill="#fff8e8" />
  <g filter="url(#paper)">
    <rect x="28" y="24" width="1344" height="932" rx="42" fill="url(#sky)" />
    <path d="M76 792 C256 720 425 806 610 756 C820 698 1040 710 1328 802 L1328 936 L72 936 Z" fill="#efe6c9" opacity=".58" />
    <path d="M88 178 C270 76 474 132 654 92 C882 40 1108 84 1308 48" class="thin" opacity=".22" />
  </g>

  <g class="glow soft">
    <circle cx="240" cy="205" r="92" fill="#ffd96f" opacity=".46" />
    <circle cx="1132" cy="206" r="110" fill="#ffc0aa" opacity=".32" />
    <path d="M504 202 C580 120 726 128 804 208 C876 283 846 404 730 434 C607 466 480 398 460 294 C453 258 472 226 504 202Z" fill="#bde4c1" opacity=".46" />
    <path d="M420 692 C514 606 696 596 806 680 C914 762 864 900 716 922 C570 944 392 846 394 752 C395 724 404 707 420 692Z" fill="#f5b4c6" opacity=".38" />
  </g>

  <g class="soft" opacity=".9">
    <path d="M198 658 C228 614 276 614 304 660 C333 612 383 618 407 666 C437 727 308 806 303 810 C296 804 168 722 198 658Z" fill="#ff8da0" />
    <path d="M1036 650 C1062 615 1102 616 1126 654 C1150 616 1192 621 1214 662 C1240 713 1132 782 1126 786 C1120 781 1010 706 1036 650Z" fill="#ffb067" opacity=".86" />
  </g>

  <g class="soft" opacity=".78">
    <circle cx="418" cy="184" r="8" fill="#f7b84a" />
    <circle cx="930" cy="164" r="7" fill="#f7b84a" />
    <circle cx="1062" cy="338" r="8" fill="#8ccf93" />
    <circle cx="326" cy="366" r="7" fill="#8ccf93" />
    <path d="M644 145 l15 31 34 5 -25 24 6 34 -30 -16 -30 16 6 -34 -25 -24 34 -5Z" fill="#ffd967" opacity=".9" />
    <path d="M848 290 l10 20 22 3 -16 16 4 22 -20 -10 -20 10 4 -22 -16 -16 22 -3Z" fill="#ffd967" opacity=".82" />
    <path d="M178 390 l9 18 20 3 -14 14 3 20 -18 -9 -18 9 3 -20 -14 -14 20 -3Z" fill="#ffd967" opacity=".78" />
  </g>

  <g transform="translate(340 235)" filter="url(#shadow)">
    <path d="M-34 482 C64 392 228 354 400 384 C565 412 682 500 746 628 C556 720 236 724 22 630 C-44 600 -76 532 -34 482Z" fill="#fffaf0" opacity=".9" />
  </g>

  <g transform="translate(355 220)">
    <path class="thin" d="M-18 650 C184 730 514 718 744 646" stroke="#92775f" opacity=".58" />

    <g transform="translate(52 188) rotate(-2)">
      <circle cx="104" cy="104" r="76" fill="#ffd7b4" class="soft" />
      <path class="line" d="M44 101 C54 28 145 24 168 102 C128 78 86 80 44 101Z" />
      <circle cx="80" cy="112" r="6" fill="#352820" />
      <circle cx="130" cy="111" r="6" fill="#352820" />
      <path class="thin" d="M86 145 C104 158 128 156 144 141" />
      <path d="M42 268 C62 188 151 186 178 268 C142 294 76 292 42 268Z" fill="#7fbf82" class="soft" />
      <path class="thin" d="M60 214 C112 244 154 236 178 204" />
    </g>

    <g transform="translate(510 178) rotate(2)">
      <circle cx="104" cy="104" r="76" fill="#ffd0c4" class="soft" />
      <path class="line" d="M36 111 C30 32 182 20 184 112 C135 82 84 83 36 111Z" />
      <circle cx="82" cy="114" r="6" fill="#352820" />
      <circle cx="134" cy="114" r="6" fill="#352820" />
      <path class="thin" d="M88 143 C109 163 137 160 156 140" />
      <path d="M40 276 C60 190 157 185 188 276 C151 304 78 303 40 276Z" fill="#f18b68" class="soft" />
      <path class="thin" d="M55 212 C108 250 160 243 190 205" />
    </g>

    <path class="thin" d="M256 424 C302 468 420 466 472 420" stroke="#e4815d" />
    <path class="thin" d="M250 378 C332 332 412 336 482 380" stroke="#e4815d" opacity=".58" />

    <g transform="translate(320 492) rotate(-4)" class="soft">
      <path d="M0 0 L176 16 L160 118 L-12 104 Z" fill="#fff6dd" stroke="#4d3b31" stroke-width="4" />
      <path class="thin" d="M28 33 C68 48 106 46 144 35" />
      <path class="thin" d="M26 62 C66 77 104 75 142 64" opacity=".72" />
    </g>

    <g transform="translate(384 286)" class="soft">
      <path d="M0 116 C46 74 24 36 76 0 C64 54 124 58 106 124 C91 181 27 168 0 116Z" fill="#ff8d4f" />
      <path d="M46 122 C66 88 54 60 88 40 C82 82 126 92 102 136 C84 170 58 154 46 122Z" fill="#ffd565" />
      <path class="line" d="M-42 170 C24 144 92 144 154 170" stroke="#73543a" />
    </g>
  </g>

  <g class="soft">
    <path d="M184 572 C126 520 126 430 190 398 C226 380 266 386 294 412" class="thin" opacity=".7" />
    <path d="M1194 570 C1248 508 1230 420 1160 394 C1122 380 1084 390 1058 420" class="thin" opacity=".7" />
    <path d="M178 578 C202 600 238 602 264 584" class="thin" />
    <path d="M1094 582 C1124 604 1162 601 1190 576" class="thin" />
  </g>

  <path class="thin" d="M56 62 C328 42 562 60 832 44 C1038 32 1190 54 1342 38" opacity=".32" />
  <path class="thin" d="M52 934 C342 914 574 936 816 922 C1020 910 1160 934 1344 914" opacity=".32" />
  <path class="thin" d="M48 76 C34 276 58 492 42 700 C35 806 45 880 56 928" opacity=".24" />
  <path class="thin" d="M1348 64 C1368 280 1338 456 1354 684 C1362 800 1348 880 1338 930" opacity=".24" />
</svg>
